<svg xmlns="http://www.w3.org/2000/svg" viewBox="0 -0.5 32 32" shape-rendering="crispEdges">
<metadata>Made with Pixels to Svg https://codepen.io/shshaw/pen/XbxvNj</metadata>
<path stroke="#ffffff" d="M12 0h16M11 1h18M10 2h20M9 3h5M26 3h5M9 4h4M27 4h4M9 5h3M28 5h3M9 6h3M28 6h3M9 7h3M28 7h3M9 8h3M28 8h3M9 9h3M28 9h3M9 10h3M28 10h3M4 11h1M9 11h3M28 11h3M3 12h2M9 12h3M28 12h3M2 13h3M28 13h3M1 14h24M28 14h3M0 15h25M28 15h3M0 16h25M28 16h3M1 17h24M28 17h3M2 18h3M28 18h3M3 19h2M9 19h3M28 19h3M4 20h1M9 20h3M28 20h3M9 21h3M28 21h3M9 22h3M28 22h3M9 23h3M28 23h3M9 24h3M28 24h3M9 25h3M28 25h3M9 26h3M28 26h3M9 27h4M27 27h4M9 28h5M26 28h5M10 29h20M11 30h18M12 31h16" />
<path stroke="rgba(255,255,255,0.011764705882352941)" d="M16 5h1M23 5h1M16 26h1M23 26h1" />
<path stroke="rgba(255,255,255,0.00392156862745098)" d="M14 7h1M25 7h1M14 24h1M25 24h1" />
</svg>