<svg xmlns="http://www.w3.org/2000/svg" viewBox="0 -0.5 32 32" shape-rendering="crispEdges">
<metadata>Made with Pixels to Svg https://codepen.io/shshaw/pen/XbxvNj</metadata>
<path stroke="#9badb7" d="M7 0h9M5 1h12M4 2h4M14 2h4M3 3h3M16 3h3M2 4h3M17 4h3M1 5h3M18 5h3M1 6h2M19 6h2M0 7h3M19 7h3M0 8h2M20 8h2M0 9h2M20 9h2M0 10h2M20 10h2M0 11h2M20 11h2M0 12h2M20 12h2M0 13h2M20 13h2M0 14h3M19 14h3M1 15h2M19 15h2M1 16h3M18 16h2M2 17h3M17 17h3M3 18h3M16 18h5M4 19h4M14 19h8M5 20h11M18 20h5M7 21h8M19 21h6M20 22h6M22 23h5M21 24h1M24 24h4M22 25h1M25 25h4M23 26h1M26 26h4M24 27h1M27 27h4M25 28h1M28 28h4M26 29h1M29 29h3M27 30h1M30 30h2M28 31h1M31 31h1" />
<path stroke="#c3ecf1" d="M8 2h6M6 3h10M5 4h12M4 5h12M17 5h1M3 6h2M7 6h10M18 6h1M3 7h2M7 7h10M2 8h2M6 8h12M19 8h1M2 9h1M5 9h15M2 10h1M5 10h15M2 11h1M5 11h15M2 12h2M6 12h14M2 13h2M6 13h14M3 14h1M7 14h12M3 15h2M8 15h11M4 16h2M9 16h9M5 17h2M11 17h6M6 18h3M12 18h4M8 19h6" />
<path stroke="#ffffff" d="M16 5h1M5 6h2M17 6h1M5 7h2M17 7h2M4 8h2M18 8h1M3 9h2M3 10h2M3 11h2M4 12h2M4 13h2M4 14h3M5 15h3M6 16h3M7 17h4M9 18h3" />
<path stroke="#9ba6ad" d="M21 23h1M22 24h2M23 25h2M24 26h2M25 27h2M26 28h2M27 29h2M28 30h2M29 31h2" />
</svg>